<?xml version="1.0" encoding="UTF-8" standalone="no"?>
<svg
   xmlns:dc="http://purl.org/dc/elements/1.1/"
   xmlns:cc="http://creativecommons.org/ns#"
   xmlns:rdf="http://www.w3.org/1999/02/22-rdf-syntax-ns#"
   xmlns:svg="http://www.w3.org/2000/svg"
   xmlns="http://www.w3.org/2000/svg"
   xmlns:sodipodi="http://sodipodi.sourceforge.net/DTD/sodipodi-0.dtd"
   xmlns:inkscape="http://www.inkscape.org/namespaces/inkscape"
   version="1.1"
   width="390.7mm"
   height="284.7mm"
   viewBox=" 0 0 1384.371217 1008.780357"
   id="svg2"
   inkscape:version="0.91 r13725"
   sodipodi:docname="case.svg">
  <metadata
     id="metadata32">
    <rdf:RDF>
      <cc:Work
         rdf:about="">
        <dc:format>image/svg+xml</dc:format>
        <dc:type
           rdf:resource="http://purl.org/dc/dcmitype/StillImage" />
        <dc:title></dc:title>
      </cc:Work>
    </rdf:RDF>
  </metadata>
  <defs
     id="defs30" />
  <sodipodi:namedview
     pagecolor="#ffffff"
     bordercolor="#666666"
     borderopacity="1"
     objecttolerance="10"
     gridtolerance="10"
     guidetolerance="10"
     inkscape:pageopacity="0"
     inkscape:pageshadow="2"
     inkscape:window-width="1440"
     inkscape:window-height="897"
     id="namedview28"
     showgrid="false"
     inkscape:zoom="0.56889437"
     inkscape:cx="770.46384"
     inkscape:cy="269.6104"
     inkscape:window-x="-8"
     inkscape:window-y="-8"
     inkscape:window-maximized="1"
     inkscape:current-layer="g4" />
  <!-- Front-->
  <g
     transform="translate(22.5000185, 22.5000185) "
     id="g4">
    <polygon
       style="stroke:#000000; fill:none; stroke-width:0.90000074"
       points="0, 0 80.6103025, 0 80.6103025, 21.25986 161.220605, 21.25986 161.220605, 0 214.37025500000001, 0 214.37025500000001, 21.25986 267.519905, 21.25986 267.519905, 0 320.669555, 0 320.669555, 21.25986 401.27985750000005, 21.25986 401.27985750000005, 0 481.89016, 0 481.89016, 80.6103025 460.6303, 80.6103025 460.6303, 161.220605 481.89016, 161.220605 481.89016, 214.37025500000001 460.6303, 214.37025500000001 460.6303, 267.519905 481.89016, 267.519905 481.89016, 320.669555 460.6303, 320.669555 460.6303, 401.27985750000005 481.89016, 401.27985750000005 481.89016000000004, 481.89016 401.27985750000005, 481.89016 401.27985750000005, 460.6303 320.669555, 460.6303 320.669555, 481.89016 267.519905, 481.89016 267.519905, 460.6303 214.37025500000001, 460.6303 214.37025500000001, 481.89016 161.220605, 481.89016 161.220605, 460.6303 80.6103025, 460.6303 80.6103025, 481.89016 0, 481.89016000000004 0, 401.27985750000005 21.25986, 401.27985750000005 21.25986, 320.669555 0, 320.669555 0, 267.519905 21.25986, 267.519905 21.25986, 214.37025500000001 0, 214.37025500000001 0, 161.220605 21.25986, 161.220605 21.25986, 80.6103025 0, 80.6103025 "
       id="polygon6" />
    <rect
       style="fill:#0000ff;fill-rule:evenodd;stroke:#000000;stroke-width:0.10139932;stroke-linecap:butt;stroke-linejoin:miter;stroke-opacity:1"
       id="rect3360"
       width="120.37114"
       height="240.84367"
       x="110.13152"
       y="118.94254" />
    <rect
       style="stroke-width:0.1"
       id="rect3362"
       width="104.52764"
       height="251.575"
       x="301.28171"
       y="115.15759" />
  </g>
  <!-- Back-->
  <g
     transform="translate(504.3901785, 22.5000185) "
     id="g8">
    <polygon
       style="stroke:#000000; fill:none; stroke-width:0.90000074"
       points="0, 0 80.6103025, 0 80.6103025, 21.25986 161.220605, 21.25986 161.220605, 0 214.37025500000001, 0 214.37025500000001, 21.25986 267.519905, 21.25986 267.519905, 0 320.669555, 0 320.669555, 21.25986 401.27985750000005, 21.25986 401.27985750000005, 0 481.89016, 0 481.89016, 80.6103025 460.6303, 80.6103025 460.6303, 161.220605 481.89016, 161.220605 481.89016, 214.37025500000001 460.6303, 214.37025500000001 460.6303, 267.519905 481.89016, 267.519905 481.89016, 320.669555 460.6303, 320.669555 460.6303, 401.27985750000005 481.89016, 401.27985750000005 481.89016000000004, 481.89016 401.27985750000005, 481.89016 401.27985750000005, 460.6303 320.669555, 460.6303 320.669555, 481.89016 267.519905, 481.89016 267.519905, 460.6303 214.37025500000001, 460.6303 214.37025500000001, 481.89016 161.220605, 481.89016 161.220605, 460.6303 80.6103025, 460.6303 80.6103025, 481.89016 0, 481.89016000000004 0, 401.27985750000005 21.25986, 401.27985750000005 21.25986, 320.669555 0, 320.669555 0, 267.519905 21.25986, 267.519905 21.25986, 214.37025500000001 0, 214.37025500000001 0, 161.220605 21.25986, 161.220605 21.25986, 80.6103025 0, 80.6103025 "
       id="polygon10" />
  </g>
  <!-- Left-->
  <g
     transform="translate(986.2803385000001, 22.5000185) "
     id="g12">
    <polygon
       style="stroke:#000000; fill:none; stroke-width:0.90000074"
       points="21.25986, 0 80.6103025, 0 80.6103025, 21.25986 161.220605, 21.25986 161.220605, 0 214.37025500000001, 0 214.37025500000001, 21.25986 294.98055750000003, 21.25986 294.98055750000003, 0 354.331, 0 354.331, 80.6103025 375.59086, 80.6103025 375.59086, 161.220605 354.331, 161.220605 354.331, 214.37025500000001 375.59086, 214.37025500000001 375.59086, 267.519905 354.331, 267.519905 354.331, 320.669555 375.59086, 320.669555 375.59086, 401.27985750000005 354.331, 401.27985750000005 354.331, 481.89016 294.98055750000003, 481.89016 294.98055750000003, 460.6303 214.37025500000001, 460.6303 214.37025500000001, 481.89016 161.220605, 481.89016 161.220605, 460.6303 80.6103025, 460.6303 80.6103025, 481.89016 21.25986, 481.89016000000004 21.25986, 401.27985750000005 0, 401.27985750000005 0, 320.669555 21.25986, 320.669555 21.25986, 267.519905 0, 267.519905 0, 214.37025500000001 21.25986, 214.37025500000001 21.25986, 161.220605 0, 161.220605 0, 80.6103025 21.25986, 80.6103025 "
       id="polygon14" />
  </g>
  <!-- Right-->
  <g
     transform="translate(986.2803385000001, 504.3901785) "
     id="g16">
    <polygon
       style="stroke:#000000; fill:none; stroke-width:0.90000074"
       points="21.25986, 0 80.6103025, 0 80.6103025, 21.25986 161.220605, 21.25986 161.220605, 0 214.37025500000001, 0 214.37025500000001, 21.25986 294.98055750000003, 21.25986 294.98055750000003, 0 354.331, 0 354.331, 80.6103025 375.59086, 80.6103025 375.59086, 161.220605 354.331, 161.220605 354.331, 214.37025500000001 375.59086, 214.37025500000001 375.59086, 267.519905 354.331, 267.519905 354.331, 320.669555 375.59086, 320.669555 375.59086, 401.27985750000005 354.331, 401.27985750000005 354.331, 481.89016 294.98055750000003, 481.89016 294.98055750000003, 460.6303 214.37025500000001, 460.6303 214.37025500000001, 481.89016 161.220605, 481.89016 161.220605, 460.6303 80.6103025, 460.6303 80.6103025, 481.89016 21.25986, 481.89016000000004 21.25986, 401.27985750000005 0, 401.27985750000005 0, 320.669555 21.25986, 320.669555 21.25986, 267.519905 0, 267.519905 0, 214.37025500000001 21.25986, 214.37025500000001 21.25986, 161.220605 0, 161.220605 0, 80.6103025 21.25986, 80.6103025 "
       id="polygon18" />
  </g>
  <!-- Top-->
  <g
     transform="translate(22.5000185, 504.3901785) "
     id="g20">
    <polygon
       style="stroke:#000000; fill:none; stroke-width:0.90000074"
       points="21.25986, 21.25986 80.6103025, 21.25986 80.6103025, 0 161.220605, 0 161.220605, 21.25986 214.37025500000001, 21.25986 214.37025500000001, 0 267.519905, 0 267.519905, 21.25986 320.669555, 21.25986 320.669555, 0 401.27985750000005, 0 401.27985750000005, 21.25986 460.6303, 21.25986 460.6303, 80.6103025 481.89016, 80.6103025 481.89016, 161.220605 460.6303, 161.220605 460.6303, 214.37025500000001 481.89016, 214.37025500000001 481.89016, 294.98055750000003 460.6303, 294.98055750000003 460.63030000000003, 354.331 401.27985750000005, 354.331 401.27985750000005, 375.59086 320.669555, 375.59086 320.669555, 354.331 267.519905, 354.331 267.519905, 375.59086 214.37025500000001, 375.59086 214.37025500000001, 354.331 161.220605, 354.331 161.220605, 375.59086 80.6103025, 375.59086 80.6103025, 354.331 21.25986, 354.331 21.25986, 294.98055750000003 0, 294.98055750000003 0, 214.37025500000001 21.25986, 214.37025500000001 21.25986, 161.220605 0, 161.220605 0, 80.6103025 21.25986, 80.6103025 "
       id="polygon22" />
  </g>
  <!-- Bottom-->
  <g
     transform="translate(504.3901785, 504.3901785) "
     id="g24">
    <polygon
       style="stroke:#000000; fill:none; stroke-width:0.90000074"
       points="21.25986, 21.25986 80.6103025, 21.25986 80.6103025, 0 161.220605, 0 161.220605, 21.25986 214.37025500000001, 21.25986 214.37025500000001, 0 267.519905, 0 267.519905, 21.25986 320.669555, 21.25986 320.669555, 0 401.27985750000005, 0 401.27985750000005, 21.25986 460.6303, 21.25986 460.6303, 80.6103025 481.89016, 80.6103025 481.89016, 161.220605 460.6303, 161.220605 460.6303, 214.37025500000001 481.89016, 214.37025500000001 481.89016, 294.98055750000003 460.6303, 294.98055750000003 460.63030000000003, 354.331 401.27985750000005, 354.331 401.27985750000005, 375.59086 320.669555, 375.59086 320.669555, 354.331 267.519905, 354.331 267.519905, 375.59086 214.37025500000001, 375.59086 214.37025500000001, 354.331 161.220605, 354.331 161.220605, 375.59086 80.6103025, 375.59086 80.6103025, 354.331 21.25986, 354.331 21.25986, 294.98055750000003 0, 294.98055750000003 0, 214.37025500000001 21.25986, 214.37025500000001 21.25986, 161.220605 0, 161.220605 0, 80.6103025 21.25986, 80.6103025 "
       id="polygon26" />
  </g>
</svg>
